<mxfile host="app.diagrams.net" modified="2020-09-03T03:35:33.553Z" agent="5.0 (Macintosh; Intel Mac OS X 10_15_6) AppleWebKit/537.36 (KHTML, like Gecko) Chrome/83.0.4103.106 Safari/537.36" etag="Fu_kZYh0hBaTs0-gUYKG" version="13.6.6" type="github">
  <diagram id="oAEjAyv4hHt6sXET8IS4" name="Page-1">
    <mxGraphModel dx="1298" dy="724" grid="1" gridSize="10" guides="1" tooltips="1" connect="1" arrows="1" fold="1" page="1" pageScale="1" pageWidth="827" pageHeight="1169" math="0" shadow="0">
      <root>
        <mxCell id="0" />
        <mxCell id="1" parent="0" />
        <mxCell id="0oNIF28DzNxOTOLceOUh-10" style="edgeStyle=orthogonalEdgeStyle;rounded=0;orthogonalLoop=1;jettySize=auto;html=1;entryX=0.5;entryY=0;entryDx=0;entryDy=0;" edge="1" parent="1" source="0oNIF28DzNxOTOLceOUh-1" target="0oNIF28DzNxOTOLceOUh-2">
          <mxGeometry relative="1" as="geometry" />
        </mxCell>
        <mxCell id="0oNIF28DzNxOTOLceOUh-11" style="edgeStyle=orthogonalEdgeStyle;rounded=0;orthogonalLoop=1;jettySize=auto;html=1;entryX=0.5;entryY=0;entryDx=0;entryDy=0;" edge="1" parent="1" source="0oNIF28DzNxOTOLceOUh-1" target="0oNIF28DzNxOTOLceOUh-4">
          <mxGeometry relative="1" as="geometry" />
        </mxCell>
        <mxCell id="0oNIF28DzNxOTOLceOUh-1" value="resize" style="rounded=0;whiteSpace=wrap;html=1;" vertex="1" parent="1">
          <mxGeometry x="350" y="340" width="80" height="40" as="geometry" />
        </mxCell>
        <mxCell id="0oNIF28DzNxOTOLceOUh-12" style="edgeStyle=orthogonalEdgeStyle;rounded=0;orthogonalLoop=1;jettySize=auto;html=1;entryX=0.5;entryY=0;entryDx=0;entryDy=0;" edge="1" parent="1" source="0oNIF28DzNxOTOLceOUh-2" target="0oNIF28DzNxOTOLceOUh-3">
          <mxGeometry relative="1" as="geometry" />
        </mxCell>
        <mxCell id="0oNIF28DzNxOTOLceOUh-2" value="Sober边缘锐化" style="rounded=0;whiteSpace=wrap;html=1;" vertex="1" parent="1">
          <mxGeometry x="230" y="430" width="90" height="30" as="geometry" />
        </mxCell>
        <mxCell id="0oNIF28DzNxOTOLceOUh-13" style="edgeStyle=orthogonalEdgeStyle;rounded=0;orthogonalLoop=1;jettySize=auto;html=1;entryX=0;entryY=0.5;entryDx=0;entryDy=0;" edge="1" parent="1" source="0oNIF28DzNxOTOLceOUh-3" target="0oNIF28DzNxOTOLceOUh-5">
          <mxGeometry relative="1" as="geometry">
            <Array as="points">
              <mxPoint x="275" y="610" />
            </Array>
          </mxGeometry>
        </mxCell>
        <mxCell id="0oNIF28DzNxOTOLceOUh-18" style="edgeStyle=orthogonalEdgeStyle;rounded=0;orthogonalLoop=1;jettySize=auto;html=1;entryX=0;entryY=0.5;entryDx=0;entryDy=0;" edge="1" parent="1" source="0oNIF28DzNxOTOLceOUh-3" target="0oNIF28DzNxOTOLceOUh-6">
          <mxGeometry relative="1" as="geometry">
            <Array as="points">
              <mxPoint x="275" y="720" />
            </Array>
          </mxGeometry>
        </mxCell>
        <mxCell id="0oNIF28DzNxOTOLceOUh-19" style="edgeStyle=orthogonalEdgeStyle;rounded=0;orthogonalLoop=1;jettySize=auto;html=1;entryX=0;entryY=0.75;entryDx=0;entryDy=0;" edge="1" parent="1" source="0oNIF28DzNxOTOLceOUh-3" target="0oNIF28DzNxOTOLceOUh-8">
          <mxGeometry relative="1" as="geometry">
            <Array as="points">
              <mxPoint x="275" y="850" />
            </Array>
          </mxGeometry>
        </mxCell>
        <mxCell id="0oNIF28DzNxOTOLceOUh-20" style="edgeStyle=orthogonalEdgeStyle;rounded=0;orthogonalLoop=1;jettySize=auto;html=1;entryX=0;entryY=0.5;entryDx=0;entryDy=0;" edge="1" parent="1" source="0oNIF28DzNxOTOLceOUh-3" target="0oNIF28DzNxOTOLceOUh-9">
          <mxGeometry relative="1" as="geometry">
            <Array as="points">
              <mxPoint x="275" y="940" />
            </Array>
          </mxGeometry>
        </mxCell>
        <mxCell id="0oNIF28DzNxOTOLceOUh-3" value="高斯滤波" style="rounded=0;whiteSpace=wrap;html=1;" vertex="1" parent="1">
          <mxGeometry x="230" y="520" width="90" height="30" as="geometry" />
        </mxCell>
        <mxCell id="0oNIF28DzNxOTOLceOUh-14" style="edgeStyle=orthogonalEdgeStyle;rounded=0;orthogonalLoop=1;jettySize=auto;html=1;" edge="1" parent="1" source="0oNIF28DzNxOTOLceOUh-4" target="0oNIF28DzNxOTOLceOUh-5">
          <mxGeometry relative="1" as="geometry" />
        </mxCell>
        <mxCell id="0oNIF28DzNxOTOLceOUh-4" value="通道转换" style="rounded=0;whiteSpace=wrap;html=1;" vertex="1" parent="1">
          <mxGeometry x="440" y="430" width="80" height="40" as="geometry" />
        </mxCell>
        <mxCell id="0oNIF28DzNxOTOLceOUh-15" style="edgeStyle=orthogonalEdgeStyle;rounded=0;orthogonalLoop=1;jettySize=auto;html=1;entryX=0.5;entryY=0;entryDx=0;entryDy=0;" edge="1" parent="1" source="0oNIF28DzNxOTOLceOUh-5" target="0oNIF28DzNxOTOLceOUh-6">
          <mxGeometry relative="1" as="geometry" />
        </mxCell>
        <mxCell id="0oNIF28DzNxOTOLceOUh-5" value="双边滤波1" style="rounded=0;whiteSpace=wrap;html=1;" vertex="1" parent="1">
          <mxGeometry x="365" y="590" width="80" height="40" as="geometry" />
        </mxCell>
        <mxCell id="0oNIF28DzNxOTOLceOUh-16" style="edgeStyle=orthogonalEdgeStyle;rounded=0;orthogonalLoop=1;jettySize=auto;html=1;entryX=0.5;entryY=0;entryDx=0;entryDy=0;" edge="1" parent="1" source="0oNIF28DzNxOTOLceOUh-6" target="0oNIF28DzNxOTOLceOUh-8">
          <mxGeometry relative="1" as="geometry" />
        </mxCell>
        <mxCell id="0oNIF28DzNxOTOLceOUh-6" value="双边滤波2" style="rounded=0;whiteSpace=wrap;html=1;" vertex="1" parent="1">
          <mxGeometry x="365" y="700" width="80" height="40" as="geometry" />
        </mxCell>
        <mxCell id="0oNIF28DzNxOTOLceOUh-17" style="edgeStyle=orthogonalEdgeStyle;rounded=0;orthogonalLoop=1;jettySize=auto;html=1;entryX=0.5;entryY=0;entryDx=0;entryDy=0;" edge="1" parent="1" source="0oNIF28DzNxOTOLceOUh-8" target="0oNIF28DzNxOTOLceOUh-9">
          <mxGeometry relative="1" as="geometry" />
        </mxCell>
        <mxCell id="0oNIF28DzNxOTOLceOUh-8" value="FDoG边缘提取" style="rounded=0;whiteSpace=wrap;html=1;" vertex="1" parent="1">
          <mxGeometry x="360" y="820" width="90" height="40" as="geometry" />
        </mxCell>
        <mxCell id="0oNIF28DzNxOTOLceOUh-21" style="edgeStyle=orthogonalEdgeStyle;rounded=0;orthogonalLoop=1;jettySize=auto;html=1;" edge="1" parent="1" source="0oNIF28DzNxOTOLceOUh-9">
          <mxGeometry relative="1" as="geometry">
            <mxPoint x="405" y="1040" as="targetPoint" />
          </mxGeometry>
        </mxCell>
        <mxCell id="0oNIF28DzNxOTOLceOUh-9" value="FDoG1边缘提取" style="rounded=0;whiteSpace=wrap;html=1;" vertex="1" parent="1">
          <mxGeometry x="360" y="920" width="90" height="40" as="geometry" />
        </mxCell>
        <mxCell id="0oNIF28DzNxOTOLceOUh-22" value="" style="endArrow=classic;html=1;" edge="1" parent="1" target="0oNIF28DzNxOTOLceOUh-1">
          <mxGeometry width="50" height="50" relative="1" as="geometry">
            <mxPoint x="390" y="280" as="sourcePoint" />
            <mxPoint x="400" y="250" as="targetPoint" />
          </mxGeometry>
        </mxCell>
        <mxCell id="0oNIF28DzNxOTOLceOUh-24" value="保留边缘去除噪声，引入高斯半径，避免边缘处均值化" style="text;html=1;strokeColor=none;fillColor=none;align=center;verticalAlign=middle;whiteSpace=wrap;rounded=0;" vertex="1" parent="1">
          <mxGeometry x="450" y="600" width="170" height="20" as="geometry" />
        </mxCell>
        <mxCell id="0oNIF28DzNxOTOLceOUh-25" value="FDoG边缘提取" style="text;html=1;strokeColor=none;fillColor=none;align=center;verticalAlign=middle;whiteSpace=wrap;rounded=0;" vertex="1" parent="1">
          <mxGeometry x="445" y="830" width="130" height="20" as="geometry" />
        </mxCell>
        <mxCell id="0oNIF28DzNxOTOLceOUh-27" value="锐化边缘特征" style="text;html=1;strokeColor=none;fillColor=none;align=center;verticalAlign=middle;whiteSpace=wrap;rounded=0;" vertex="1" parent="1">
          <mxGeometry x="100" y="435" width="130" height="20" as="geometry" />
        </mxCell>
        <mxCell id="0oNIF28DzNxOTOLceOUh-29" value="去噪" style="text;html=1;strokeColor=none;fillColor=none;align=center;verticalAlign=middle;whiteSpace=wrap;rounded=0;" vertex="1" parent="1">
          <mxGeometry x="100" y="530" width="130" height="20" as="geometry" />
        </mxCell>
        <mxCell id="0oNIF28DzNxOTOLceOUh-31" value="阈值分割二值化显示边缘" style="text;html=1;strokeColor=none;fillColor=none;align=center;verticalAlign=middle;whiteSpace=wrap;rounded=0;" vertex="1" parent="1">
          <mxGeometry x="460" y="930" width="130" height="20" as="geometry" />
        </mxCell>
      </root>
    </mxGraphModel>
  </diagram>
</mxfile>
